<svg width="338" height="86" viewBox="0 0 338 86" fill="none" xmlns="http://www.w3.org/2000/svg">
<mask id="path-1-inside-1_4381_15515" fill="white">
<path d="M322 0C330.837 0 338 7.16344 338 16V61.5518C338 70.3881 330.836 77.5518 322 77.5518H37.6797L16.9854 86V77.5518H16C7.16359 77.5518 0.000230911 70.3881 0 61.5518V16C6.18487e-06 7.16345 7.16345 0 16 0H322Z"/>
</mask>
<path d="M338 61.5518L339 61.5518V61.5518H338ZM37.6797 77.5518V76.5518H37.4834L37.3017 76.6259L37.6797 77.5518ZM16.9854 86H15.9854V87.4884L17.3633 86.9258L16.9854 86ZM16.9854 77.5518H17.9854V76.5518H16.9854V77.5518ZM16 77.5518L16 78.5518H16V77.5518ZM0 61.5518L-1 61.5518L-1 61.5518L0 61.5518ZM0 16L-1 16V16H0ZM322 0V1C330.284 1 337 7.71573 337 16H338H339C339 6.61116 331.389 -1 322 -1V0ZM338 16H337V61.5518H338H339V16H338ZM338 61.5518L337 61.5517C337 69.8359 330.284 76.5518 322 76.5518V77.5518V78.5518C331.389 78.5518 339 70.9404 339 61.5518L338 61.5518ZM322 77.5518V76.5518H37.6797V77.5518V78.5518H322V77.5518ZM37.6797 77.5518L37.3017 76.6259L16.6074 85.0742L16.9854 86L17.3633 86.9258L38.0576 78.4776L37.6797 77.5518ZM16.9854 86H17.9854V77.5518H16.9854H15.9854V86H16.9854ZM16.9854 77.5518V76.5518H16V77.5518V78.5518H16.9854V77.5518ZM16 77.5518L16 76.5518C7.7159 76.5518 1.00022 69.8359 1 61.5517L0 61.5518L-1 61.5518C-0.999755 70.9404 6.61128 78.5518 16 78.5518L16 77.5518ZM0 61.5518H1V16H0H-1V61.5518H0ZM0 16L1 16C1.00001 7.71573 7.71573 1 16 1V0V-1C6.61116 -1 -0.999993 6.61116 -1 16L0 16ZM16 0V1H322V0V-1H16V0Z" fill="#D11A22" fill-opacity="0.59" mask="url(#path-1-inside-1_4381_15515)"/>
</svg>
